# AST/ASF file generated using VICON BodyLanguage
# -----------------------------------------------
:version 1.10
:name VICON
:units
  mass 1.0
  length 0.45
  angle deg
:documentation
   .ast/.asf automatically generated from VICON data using
   VICON BodyBuilder and BodyLanguage model FoxedUp or BRILLIANT.MOD
:root
   order TX TY TZ RX RY RZ
   axis XYZ
   position 0 0 0  
   orientation 0 0 0 
:bonedata
  begin
     id 1 
     name lhipjoint
     direction 0.610259 -0.730986 0.305356 
     length 2.50941 
     axis 0 0 0  XYZ
  end
  begin
     id 2 
     name lfemur
     direction 0.34202 -0.939693 0  
     length 7.48822  
     axis 0 0 20  XYZ
    dof rx ry rz
    limits (-160.0 20.0)
           (-70.0 70.0)
           (-60.0 70.0)
  end
  begin
     id 3 
     name ltibia
     direction 0.34202 -0.939693 0   
     length 7.60141   
     axis 0 0 20   XYZ
    dof rx
    limits (-10.0 170.0)
  end
  begin
     id 4 
     name lfoot
     direction 0.0673488 -0.185039 0.980421   
     length 2.04049   
     axis -90 7.62852e-016 20   XYZ
    dof rx rz
    limits (-45.0 90.0)
           (-70.0 20.0)
  end
  begin
     id 5 
     name ltoes
     direction 1.5356e-011 -4.21729e-011 1   
     length 1.02897   
     axis -90 7.62852e-016 20   XYZ
    dof rx
    limits (-90.0 20.0)
  end
  begin
     id 6 
     name rhipjoint
     direction -0.57612 -0.754205 0.315056   
     length 2.43216  
     axis 0 0 0  XYZ 
  end
  begin
     id 7 
     name rfemur
     direction -0.34202 -0.939693 0   
     length 7.42799   
     axis 0 0 -20   XYZ
    dof rx ry rz
    limits (-160.0 20.0)
           (-70.0 70.0)
           (-70.0 60.0)
  end
  begin
     id 8 
     name rtibia
     direction -0.34202 -0.939693 0   
     length 7.69484   
     axis 0 0 -20   XYZ
    dof rx
    limits (-10.0 170.0)
 end
 begin
     id 9 
     name rfoot
     direction -0.111837 -0.30727 0.945028   
     length 2.15769  
     axis -90 -7.62852e-016 -20   XYZ
    dof rx rz
    limits (-45.0 90.0)
           (-20.0 70.0)
  end
  begin
     id 10 
     name rtoes
     direction -1.53539e-011 -4.21878e-011 1   
     length 1.07391   
     axis -90 -7.62852e-016 -20   XYZ
    dof rx
    limits (-90.0 20.0)
  end
  begin
     id 11 
     name lowerback
     direction 0.00552624 0.990109 -0.140195   
     length 2.12403   
     axis 0 0 0   XYZ
    dof rx ry rz
    limits (-20.0 45.0)
           (-30.0 30.0)
           (-30.0 30.0)
  end
  begin
     id 12 
     name upperback
     direction 0.00361898 0.999976 -0.00584723   
     length 2.13232   
     axis 0 0 0   XYZ
    dof rx ry rz
    limits (-20.0 45.0)
           (-30.0 30.0)
           (-30.0 30.0)
  end
  begin
     id 13 
     name thorax
     direction -0.000331275 0.998253 0.0590847   
     length 2.17688   
     axis 0 0 0   XYZ
    dof rx ry rz
    limits (-20.0 45.0)
           (-30.0 30.0)
           (-30.0 30.0)
  end
  begin
     id 14 
     name lowerneck
     direction -0.0561561 0.979832 0.19177   
     length 1.64159   
     axis 0 0 0   XYZ
    dof rx ry rz
    limits (-20.0 45.0)
           (-30.0 30.0)
           (-30.0 30.0)
  end
  begin
     id 15 
     name upperneck
     direction 0.0827153 0.979385 -0.184293   
     length 1.68939   
     axis 0 0 0   XYZ
    dof rx ry rz
    limits (-20.0 45.0)
           (-30.0 30.0)
           (-30.0 30.0)
  end
  begin
     id 16
     name head
     direction 0.0278583 0.995936 -0.0856488  
     length 1.70207  
     axis 0 0 0   XYZ
    dof rx ry rz
    limits (-20.0 45.0)
           (-30.0 30.0)
           (-30.0 30.0)
  end
  begin
     id 17 
     name lclavicle
     direction 0.950993 0.301131 -0.0702275  
     length 3.41652  
     axis 0 0 0   XYZ
    dof ry rz
    limits (-20.0 10.0)
           (0.0 20.0)
  end
  begin
     id 18 
     name lhumerus
     direction 1 -4.48981e-011 -3.9662e-029   
     length 5.32955   
     axis 180 -30 -90   XYZ
    dof rx ry rz
    limits (-60.0 90.0)
           (-90.0 90.0)
           (-90.0 90.0)
  end
  begin
     id 19
     name lradius
     direction 1 -4.48925e-011 -9.0549e-027   
     length 3.69232   
     axis 180 -30 -90   XYZ
    dof rx
    limits (-10.0 170.0)
  end
  begin
     id 20
     name lwrist
     direction 1 -4.49007e-011 -1.49005e-026   
     length 1.84616   
     axis 9.0955e-015 90 90   XYZ
    dof ry
    limits (-180.0 0.0)
 end
  begin
     id 21 
     name lhand
     direction 1 -4.49016e-011 -2.98023e-026   
     length 0.536598   
     axis 1.90115e-014 90 90   XYZ
    dof rx rz
    limits (-90.0 90.0)
           (-45.0 45.0)
  end
  begin
     id 22 
     name lfingers
     direction 1 -4.48924e-011 -5.9578e-026   
     length 0.432619   
     axis 3.80223e-014 90 90   XYZ
    dof rx
    limits (0.0 90.0)
  end
  begin
     id 23
     name lthumb
     direction 0.707107 -6.34947e-011 0.707107   
     length 0.621157   
     axis -90 45 -3.84942e-014   XYZ
    dof rx rz
    limits (-45.0 45.0)
           (-45.0 45.0)
  end
  begin
     id 24 
     name rclavicle
     direction -0.955495 0.276497 -0.102848   
     length 3.36357  
     axis 0 0 0   XYZ 
    dof ry rz
    limits (-10.0 20.0)
           (-20.0 0.0)
  end
  begin
     id 25 
     name rhumerus
     direction -1 -4.48961e-011 3.30983e-027  
     length 5.23431   
     axis 180 30 90   XYZ
    dof rx ry rz
    limits (-90.0 60.0)
           (-90.0 90.0)
           (-90.0 90.0)
  end
  begin
     id 26 
     name rradius
     direction -1 -4.48965e-011 -6.63263e-027   
     length 3.55301   
     axis 180 30 90   XYZ
    dof rx
    limits (-10.0 170.0)
  end
  begin
     id 27 
     name rwrist
     direction -1 -4.48942e-011 -1.48958e-026   
     length 1.77651   
     axis 9.0955e-015 -90 -90   XYZ
    dof ry
    limits (-180.0 0.0)
  end
  begin
     id 28
     name rhand
     direction -1 -4.48977e-011 -2.97966e-026   
     length 0.772522   
     axis 1.90115e-014 -90 -90   XYZ
    dof rx rz
    limits (-90.0 90.0)
           (-45.0 45.0)
  end
  begin
     id 29
     name rfingers
     direction -1 -4.49135e-011 -5.96389e-026   
     length 0.622827   
     axis 3.80223e-014 -90 -90   XYZ
    dof rx
    limits (0.0 90.0)
  end
  begin
     id 30
     name rthumb
     direction -0.707107 -6.34969e-011 0.707107   
     length 0.894259   
     axis -90 -45 3.84942e-014   XYZ
    dof rx rz
    limits (-45.0 45.0)
           (-45.0 45.0)
  end
:hierarchy
  begin
    root lhipjoint rhipjoint lowerback
    lhipjoint lfemur
    lfemur ltibia
    ltibia lfoot
    lfoot ltoes
    rhipjoint rfemur
    rfemur rtibia
    rtibia rfoot
    rfoot rtoes
    lowerback upperback
    upperback thorax
    thorax lowerneck lclavicle rclavicle
    lowerneck upperneck
    upperneck head
    lclavicle lhumerus
    lhumerus lradius
    lradius lwrist
    lwrist lhand lthumb
    lhand lfingers
    rclavicle rhumerus
    rhumerus rradius
    rradius rwrist
    rwrist rhand rthumb
    rhand rfingers
  end

#!OML:ASF F:\VICON\USERDATA\INSTALL\rory3\rory3.ASF
:FULLY-SPECIFIED
:DEGREES
1
root -12.9751 17.9039 -12.2005 -1.71016 0.9288 0.700312
lowerback 11.5238 -0.822648 -1.87761
upperback 1.00415 -1.25279 1.39219
thorax -5.33984 -0.559263 2.71841
lowerneck -21.889 -5.52116 -12.381
upperneck 27.322 -6.44409 9.49269
head 13.6582 -2.84801 4.70242
rclavicle -3.52843e-015 -7.55382e-015
rhumerus -39.6276 -20.0469 -74.2341
rradius 23.6849
rwrist 12.5764
rhand -14.0561 10.025
rfingers 7.12502
rthumb 12.075 -19.6066
lclavicle -3.52843e-015 -7.55382e-015
lhumerus -30.4194 0.329564 85.9256
lradius 33.3137
lwrist -7.43744
lhand -18.4681 25.5568
lfingers 7.12502
lthumb 7.81858 55.3923
rfemur -15.7063 2.26511 23.5849
rtibia 27.5496
rfoot -6.09177 -0.217886
rtoes 8.92777
lfemur 1.28485 -2.97982 -21.3841
ltibia 51.6807
lfoot 20.6714 -11.4415
ltoes 5.82907
2
root -12.9896 17.9108 -12.0512 -1.85395 0.847406 0.505225
lowerback 11.5946 -0.764648 -1.64698
upperback 1.00539 -1.1471 1.39003
thorax -5.38889 -0.511721 2.57074
lowerneck -21.626 -5.58253 -12.521
upperneck 27.271 -6.54652 9.59677
head 13.6067 -2.89973 4.749
rclavicle -1.96797e-014 4.37326e-015
rhumerus -39.3698 -19.9233 -74.4723
rradius 23.8488
rwrist 12.3821
rhand -14.0546 9.85612
rfingers 7.12502
rthumb 12.0764 -19.7754
lclavicle -1.96797e-014 4.37326e-015
lhumerus -30.6375 0.350879 85.861
lradius 33.3061
lwrist -7.79069
lhand -18.5245 25.9078
lfingers 7.12502
lthumb 7.76407 55.7452
rfemur -14.8545 2.33272 23.8985
rtibia 27.3401
rfoot -6.8455 -0.352643
rtoes 11.0009
lfemur 0.0231352 -2.64743 -20.9814
ltibia 53.574
lfoot 18.9687 -11.062
ltoes 4.53858
3
root -13.0067 17.9153 -11.8962 -1.97447 0.864865 0.365724
lowerback 11.5419 -0.725497 -1.55101
upperback 1.06452 -1.08184 1.39852
thorax -5.3025 -0.483469 2.51286
lowerneck -21.5422 -5.65392 -12.5689
upperneck 27.267 -6.66658 9.66545
head 13.6099 -2.95006 4.763
rclavicle -9.29318e-015 -8.34896e-015
rhumerus -39.0465 -19.7924 -74.7172
rradius 24.0427
rwrist 12.281
rhand -14.1312 9.65805
rfingers 7.12502
rthumb 12.0026 -19.9778
lclavicle -9.29318e-015 -8.34896e-015
lhumerus -30.7763 0.539525 85.7664
lradius 33.3299
lwrist -8.15494
lhand -18.1329 26.3558
lfingers 7.12502
lthumb 8.14211 56.1789
rfemur -14.0595 2.3307 24.1855
rtibia 27.1614
rfoot -6.98334 -0.433171
rtoes 8.67869
lfemur -1.05184 -2.42656 -20.6283
ltibia 55.0977
lfoot 17.4628 -10.5453
ltoes 4.6875
4
root -13.0189 17.9209 -11.7446 -2.01692 0.595802 0.3049
lowerback 11.4576 -0.598239 -1.50642
upperback 1.05569 -0.907412 1.38242
thorax -5.27511 -0.3991 2.4417
lowerneck -21.428 -5.62783 -12.4881
upperneck 27.3043 -6.64329 9.56552
head 13.5903 -2.94768 4.71429
rclavicle 2.24627e-014 9.54166e-015
rhumerus -38.8323 -19.382 -75.0525
rradius 24.4231
rwrist 11.8235
rhand -14.346 9.65627
rfingers 7.12502
rthumb 11.7955 -19.9916
lclavicle 2.24627e-014 9.54166e-015
lhumerus -31.0754 0.832427 85.6422
lradius 33.4388
lwrist -8.20384
lhand -18.2457 26.1303
lfingers 7.12502
lthumb 8.03319 55.9576
rfemur -13.3754 2.37433 24.3959
rtibia 26.8954
rfoot -7.83823 -0.256905
rtoes 5.1762
lfemur -2.1819 -2.03121 -20.4193
ltibia 56.5076
lfoot 15.8588 -9.84984
ltoes 4.19556
5
root -13.0327 17.9335 -11.5908 -2.09298 0.456281 0.230529
lowerback 11.3509 -0.536713 -1.46955
upperback 1.0477 -0.819885 1.38732
thorax -5.22905 -0.357348 2.41039
lowerneck -21.0957 -5.57621 -12.473
upperneck 27.2916 -6.5659 9.41307
head 13.4971 -2.94051 4.66457
rclavicle -7.37988e-015 9.93923e-015
rhumerus -38.5716 -19.0245 -75.3301
rradius 24.7513
rwrist 11.3066
rhand -14.4022 9.90929
rfingers 7.12502
rthumb 11.7413 -19.7416
lclavicle -7.37988e-015 9.93923e-015
lhumerus -31.3742 1.3501 85.493
lradius 33.4726
lwrist -8.09839
lhand -18.4298 26.0064
lfingers 7.12502
lthumb 7.85547 55.8405
rfemur -12.5732 2.37773 24.6093
rtibia 26.5316
rfoot -8.27354 -0.252223
rtoes 3.64361
lfemur -3.39068 -1.72954 -20.1819
ltibia 57.6956
lfoot 14.4308 -9.08487
ltoes 3.30658
